<?xml version="1.0" standalone="no"?><!DOCTYPE svg PUBLIC "-//W3C//DTD SVG 1.1//EN" "http://www.w3.org/Graphics/SVG/1.1/DTD/svg11.dtd" ><svg xmlns="http://www.w3.org/2000/svg"><metadata></metadata><defs><font id="dobby" horiz-adv-x="1636"><font-face font-family="dobby" font-weight="400" font-stretch="normal" units-per-em="1024" panose-1="2 0 5 3 0 0 0 0 0 0" ascent="896" descent="-128" x-height="0" bbox="-9 -128 1620 897" underline-thickness="0" underline-position="10" unicode-range="U+0078-f002" /><missing-glyph horiz-adv-x="1024"  /><glyph glyph-name="x" unicode="x" d="M281 543 q-27 -1 -53 -1 l-83 0 q-18 0 -36.5 -6 q-18.5 -6 -32.5 -18.5 q-14 -12.5 -23 -32 q-9 -19.5 -9 -45.5 l0 -76 l912 0 l-1 89 q0 13 -5 29 q-5 16 -17 29.5 q-12 13.5 -31.5 22.5 q-19.5 9 -49.5 9 l-133 0 l0 -97 l-438 0 l0 97 ZM955 310 l0 -52 l1 -110 q0 -29 -10.5 -47.5 q-10.5 -18.5 -26 -30 q-15.5 -11.5 -33 -16 q-17.5 -4.5 -31.5 -5 q-14 -0.5 -29 0.5 l-62 0 l-45 128 l-439 0 l-44 -128 l-63 0 q-20 0 -45 0.5 q-25 0.5 -41 10 q-16 9.5 -25.5 23 q-9.5 13.5 -13.5 29.5 q-4 16 -4 30 l0 167 l911 0 ZM163 247 q-12 0 -21 -8.5 q-9 -8.5 -9 -21.5 q0 -13 9 -21.5 q9 -8.5 21.5 -8.5 q12.5 0 21.5 8.5 q9 8.5 9 21.5 q0 13 -9 21.5 q-9 8.5 -22 8.5 ZM316 123 q-8 -26 -14 -48 q-5 -19 -10 -37 l-8 -25 q-2 -7 -3 -15 q-1 -8 1 -14.5 q2 -6.5 9.5 -10.5 q7.5 -4 21.5 -4 l365 0 q23 0 34 12 q11 12 2 38 q-5 13 -9.5 30.5 q-4.5 17.5 -9.5 35.5 q-5 18 -11 38 l-368 0 ZM336 498 l0 228 q0 11 2.5 23 q2.5 12 10 21.5 q7.5 9.5 20.5 15.5 q13 6 34 6 l188 0 q31 0 51.5 -14.5 q20.5 -14.5 20.5 -52.5 l0 -227 l-327 0 Z" /><glyph glyph-name="weixin" unicode="&#xe600;" d="M309 752 q-217 -52 -267.5 -223 q-50.5 -171 114.5 -294 q10 -4 9 -13.5 q-1 -9.5 -15 -49.5 l-16 -47 l114 61 l31 -7 q24 -6 51 -10 q27 -4 48 -4 l16 0 l-5 22 q-29 127 62.5 223.5 q91.5 96.5 246.5 101.5 l27 0 l-6 20 q-37 117 -153.5 179.5 q-116.5 62.5 -256.5 40.5 ZM284 609 q22 -17 23 -42.5 q1 -25.5 -20 -40.5 q-38 -20 -64.5 5.5 q-26.5 25.5 -5.5 63.5 q11 15 31 19.5 q20 4.5 36 -5.5 ZM525 609 q35 -30 18 -65.5 q-17 -35.5 -61 -23.5 q-30 14 -32.5 43.5 q-2.5 29.5 25.5 46.5 q11 6 25.5 5.5 q14.5 -0.5 24.5 -6.5 ZM634 487 q-107 -21 -170.5 -90.5 q-63.5 -69.5 -61.5 -163.5 q12 -127 126 -194 q114 -67 258 -32 l22 5 l46 -24 q19 -11 32.5 -17.5 q13.5 -6.5 14 -5 q0.5 1.5 -2.5 12.5 l-8 27 q-11 31 -10.5 39 q0.5 8 15.5 17 q156 136 60.5 292.5 q-95.5 156.5 -321.5 133.5 ZM629 355 q9 -6 13 -19 q4 -13 0 -25 q-10 -24 -35 -25 q-25 -1 -37 22 q-9 28 11.5 45 q20.5 17 47.5 2 ZM825 352 q15 -15 13 -33.5 q-2 -18.5 -19 -28.5 q-28 -12 -46.5 6 q-18.5 18 -7.5 45 q10 17 28 20 q18 3 32 -9 Z" /><glyph glyph-name="reply" unicode="&#xe62c;" d="M967 117 q-13 0 -19.5 13.5 q-6.5 13.5 -27.5 42 q-21 28.5 -58 59.5 q-27 23 -58.5 47.5 q-31.5 24.5 -66.5 38.5 q-43 16 -91 27.5 q-48 11.5 -101 12.5 q-36 0 -71 -3.5 q-35 -3.5 -75 -10.5 l0 -168 q-1 -14 -13 -20 q-7 -3 -17 -1.5 q-10 1.5 -16 5.5 l-311 312 q-7 6 -7 15 q0 9 7 16 l311 312 q6 4 15 5.5 q9 1.5 16 -1.5 q12 -6 13 -20 l0 -161 q11 1 25 1 l34 1 q69 1 156.5 -15.5 q87.5 -16.5 172.5 -63.5 q93 -54 144 -144 q30 -53 45 -128 q15 -75 15 -150 q0 -8 -5 -14 q-5 -6 -12 -8 l-5 0 ZM115 487 l221 -222 l0 121 q0 7 5.5 12.5 q5.5 5.5 12.5 6.5 q46 9 96.5 12.5 q50.5 3.5 91.5 2.5 q54 0 103.5 -9.5 q49.5 -9.5 93.5 -25.5 q72 -26 127 -72 q15 -12 30.5 -22.5 q15.5 -10.5 25.5 -21.5 q-19 85 -62 141.5 q-43 56.5 -115.5 97 q-72.5 40.5 -149 56.5 q-76.5 16 -137.5 15 q-37 -1 -66 -4.5 q-29 -3.5 -31 -4.5 q-10 -2 -17.5 4 q-7.5 6 -7.5 15 l0 121 l-221 -223 Z" /><glyph glyph-name="smile" unicode="&#xe670;" d="M512 -82 q-197 5 -329 137 q-132 132 -137 329 q5 197 137 329 q132 132 329 137 q197 -5 329 -137 q132 -132 137 -329 q-5 -197 -137 -329 q-132 -132 -329 -137 ZM512 780 q-167 -4 -279.5 -116.5 q-112.5 -112.5 -116.5 -279.5 q4 -167 116.5 -279.5 q112.5 -112.5 279.5 -116.5 q167 4 279.5 116.5 q112.5 112.5 116.5 279.5 q-4 167 -116.5 279.5 q-112.5 112.5 -279.5 116.5 ZM372 423 q-1 -18 -13.5 -28.5 q-12.5 -10.5 -25.5 -10.5 l0 0 q-17 0 -27.5 10.5 q-10.5 10.5 -10.5 28.5 l0 70 q0 17 10.5 27.5 q10.5 10.5 27.5 11.5 l0 0 q18 -1 28.5 -11.5 q10.5 -10.5 10.5 -27.5 l0 -70 ZM729 423 q0 -18 -10.5 -28.5 q-10.5 -10.5 -27.5 -10.5 l0 0 q-18 0 -28.5 10.5 q-10.5 10.5 -10.5 28.5 l0 70 q0 17 10.5 27.5 q10.5 10.5 28.5 11.5 l0 0 q17 -1 27.5 -11.5 q10.5 -10.5 10.5 -27.5 l0 -70 ZM667 306 q6 1 12 -0.5 q6 -1.5 12 -6.5 q11 -13 11 -28 q0 -15 -11 -27 q-36 -40 -85 -59 q-49 -19 -102 -18.5 q-53 0.5 -102 21.5 q-49 21 -84 56 q-12 12 -12 27 q0 15 12 28 q18 6 34 4.5 q16 -1.5 28 -12.5 q56 -58 132 -55.5 q76 2.5 132 55.5 q6 6 12 10.5 q6 4.5 11 4.5 Z" /><glyph glyph-name="twitter" unicode="&#xe603;" d="M1024 702 q-57 -26 -121 -34 q33 20 57 50 q24 30 36 67 q-62 -37 -134 -51 q-29 31 -68 48.5 q-39 17.5 -85 17.5 q-89 -2 -148.5 -61.5 q-59.5 -59.5 -61.5 -148.5 q0 -25 5 -48 q-132 8 -243 65.5 q-111 57.5 -190 154.5 q-27 -48 -28 -106 q0 -55 25.5 -100.5 q25.5 -45.5 67.5 -74.5 q-52 2 -95 26 l0 -2 q2 -78 48.5 -134 q46.5 -56 120.5 -72 q-27 -8 -56 -8 q-20 0 -39 4 q21 -64 73.5 -103.5 q52.5 -39.5 122.5 -42.5 q-54 -42 -120.5 -65.5 q-66.5 -23.5 -140.5 -24.5 q-25 0 -50 3 q70 -45 151.5 -69.5 q81.5 -24.5 170.5 -24.5 q291 11 444 194.5 q153 183.5 154 403.5 q0 13 -1 27 q62 45 105 109 Z" /><glyph glyph-name="code" unicode="&#xea77;" d="M353 97 l-29 -29 q-6 -6 -13.5 -6 q-7.5 0 -12.5 6 l-267 266 q-5 6 -5 13.5 q0 7.5 5 13.5 l267 266 q5 6 12.5 6 q7.5 0 13.5 -6 l29 -29 q5 -5 5 -12.5 q0 -7.5 -5 -13.5 l-225 -225 l225 -224 q5 -6 5 -13.5 q0 -7.5 -5 -12.5 ZM690 706 l-213 -737 q-2 -8 -8.5 -11.5 q-6.5 -3.5 -13.5 -1.5 l-36 10 q-7 2 -10.5 8.5 q-3.5 6.5 -1.5 14.5 l213 737 q2 8 8.5 11.5 q6.5 3.5 13.5 1.5 l36 -10 q7 -2 11 -8.5 q4 -6.5 1 -14.5 ZM1066 334 l-267 -266 q-5 -6 -12.5 -6 q-7.5 0 -13.5 6 l-29 29 q-5 5 -5 12.5 q0 7.5 5 13.5 l225 224 l-225 225 q-5 6 -5 13.5 q0 7.5 5 12.5 l29 29 q6 6 13.5 6 q7.5 0 12.5 -6 l267 -266 q5 -6 5 -13.5 q0 -7.5 -5 -13.5 Z" /><glyph glyph-name="thumbs" unicode="&#xe601;" d="M968 322 q18 20 27 49.5 q9 29.5 9 61.5 q0 41 -17 69 q-23 35 -65 36 l-134 0 q109 199 54 297 q-20 33 -49.5 47 q-29.5 14 -54.5 14 q-10 0 -17 -6 q-7 -6 -9 -16 q-7 -51 -43.5 -108.5 q-36.5 -57.5 -97.5 -112.5 q-59 -53 -128 -93.5 q-69 -40.5 -143 -65.5 q-10 19 -28 31 q-18 12 -41 13 l-154 0 q-33 -1 -54.5 -23 q-21.5 -22 -22.5 -54 l0 -461 q1 -33 22.5 -54.5 q21.5 -21.5 54.5 -22.5 l154 0 q24 1 43 14 q19 13 28 35 q73 -10 111 -23.5 q38 -13.5 64 -28.5 q31 -19 79 -33 q48 -14 151 -15 q28 0 53 7 q25 7 45 20 q39 26 48 69 q31 13 52 56 q10 21 16 45 q6 24 6 45 q0 7 -1 14 q20 14 34 44 q11 21 17 45.5 q6 24.5 6 47.5 q0 33 -12 54 l-2 3 l-1 0 ZM230 -26 l-153 0 q-11 1 -18.5 8 q-7.5 7 -7.5 18 l0 461 q0 11 7.5 18 q7.5 7 18.5 7 l153 0 q11 0 18.5 -7 q7.5 -7 7.5 -18 l0 -461 q0 -11 -7.5 -18 q-7.5 -7 -18.5 -8 ZM939 370 q-6 -12 -11 -16.5 q-5 -4.5 -8 -4.5 q-11 0 -18 -7.5 q-7 -7.5 -7 -18.5 q0 -11 7 -18 q7 -7 18 -7 q3 1 6 -4 q5 -10 5 -28 q0 -18 -4.5 -37 q-4.5 -19 -12 -34.5 q-7.5 -15.5 -14.5 -22 q-7 -6.5 -10 -6.5 q-11 0 -18.5 -7 q-7.5 -7 -7.5 -18 q1 -14 12 -22 q1 -13 -5 -39 q-6 -26 -21 -49 q-12 -16 -22 -16.5 q-10 -0.5 -17.5 -7.5 q-7.5 -7 -7.5 -18 q-2 -34 -30.5 -50 q-28.5 -16 -65.5 -16 q-93 1 -135.5 13 q-42.5 12 -70.5 28.5 q-28 16.5 -70.5 32 q-42.5 15.5 -123.5 26.5 l0 419 q81 27 157 71 q76 44 141 102 q61 55 100 113 q39 58 53 113 q11 -3 21.5 -10.5 q10.5 -7.5 18.5 -20.5 q16 -21 7.5 -87.5 q-8.5 -66.5 -84.5 -197.5 q-7 -13 0.5 -25.5 q7.5 -12.5 21.5 -13.5 l179 0 q14 1 22 -12 q9 -15 9 -41 q0 -17 -3.5 -33.5 q-3.5 -16.5 -10.5 -29.5 Z" /><glyph glyph-name="weibo" unicode="&#xe606;" d="M933 793 q-54 12 -145 -5 q-1 0 -2 -1 l-2 -3 l-1 -1 q-13 -4 -22 -15.5 q-9 -11.5 -9 -25.5 q0 -18 12.5 -30.5 q12.5 -12.5 29.5 -12.5 l4 0 l6 2 q4 1 9 1.5 q5 0.5 10 2.5 l10 4 q4 2 16.5 2 q12.5 0 30.5 -2 q18 -2 39.5 -9.5 q21.5 -7.5 43 -18.5 q21.5 -11 43 -30.5 q21.5 -19.5 37.5 -45.5 q32 -73 12 -140 q0 -2 0 -3 l-7 -26 q-1 -7 -1 -12 q0 -11 6 -18.5 q6 -7.5 15.5 -10.5 q9.5 -3 21.5 -3 q34 0 40 42 q15 48 17 91.5 q2 43.5 -6 77 q-8 33.5 -24 62 q-16 28.5 -37 49 q-21 20.5 -47 37 q-26 16.5 -50 26.5 q-24 10 -50 16 l0 0 ZM954 446 q8 0 14 4 q6 4 9.5 9.5 q3.5 5.5 5.5 11.5 q1 1 1 4 q15 140 -99 159 q-33 6 -61 2 q-9 0 -15 -4.5 q-6 -4.5 -10.5 -11.5 q-4.5 -7 -4.5 -14 q0 -12 9 -20.5 q9 -8.5 21 -8.5 q96 22 103 -62 q3 -21 -2 -39 q0 -13 8.5 -21.5 q8.5 -8.5 20.5 -8.5 l0 0 ZM517 189 q-8 -6 -17.5 -5.5 q-9.5 0.5 -13.5 8.5 l-2 5 q-1 2 -1 5 l0 4 q0 4 1 7 l2 5 q2 2 4 3 l4 5 q10 8 19 6.5 q9 -1.5 13 -10.5 q4 -4 3 -10.5 q-1 -6.5 -4 -12 q-3 -5.5 -8 -10.5 l0 0 ZM413 101 q-8 -1 -14.5 -0.5 q-6.5 0.5 -12.5 2.5 l-11 4 q-5 2 -9 7 l-7 8 q-3 5 -5 10.5 q-2 5.5 -2 11.5 q0 13 7.5 26 q7.5 13 20.5 22.5 q13 9.5 29 10.5 q11 1 21.5 -1 q10.5 -2 18 -6 q7.5 -4 13 -9.5 q5.5 -5.5 8 -13 q2.5 -7.5 2.5 -16.5 q0 -13 -8 -25.5 q-8 -12.5 -21.5 -21 q-13.5 -8.5 -29.5 -9.5 l0 0 ZM457 333 q-36 -4 -64 -16.5 q-28 -12.5 -44 -29.5 q-16 -17 -27.5 -36 q-11.5 -19 -15.5 -37.5 q-4 -18.5 -5.5 -33.5 q-1.5 -15 -1.5 -24 l1 -10 l0 -5 q0 -3 2.5 -14 q2.5 -11 7 -20.5 q4.5 -9.5 14.5 -20.5 q10 -11 23 -18 q82 -40 152 -24.5 q70 15.5 113 70.5 q17 21 22.5 52 q5.5 31 -2.5 62 q-8 31 -27.5 57 q-19.5 26 -58.5 40 q-39 14 -89 8 l0 0 ZM493 -7 q-133 -7 -226 51 q-93 58 -93 146 q0 88 92 151 q92 63 226.5 69.5 q134.5 6.5 227 -44 q92.5 -50.5 92.5 -138.5 q0 -88 -94.5 -158.5 q-94.5 -70.5 -224.5 -76.5 l0 0 ZM868 375 q-18 4 -23.5 11 q-5.5 7 -2.5 13 l4 7 q1 1 2 3 l5 11 q4 8 6 16 q2 8 3 19.5 q1 11.5 -0.5 22 q-1.5 10.5 -7.5 23 q-6 12.5 -15 21.5 q-18 18 -45.5 23 q-27.5 5 -55 0.5 q-27.5 -4.5 -52.5 -11.5 q-25 -7 -41 -13 l-16 -7 q-12 -4 -20 -5 q-8 -1 -12.5 0.5 q-4.5 1.5 -7 3.5 q-2.5 2 -1.5 9 l1 12 q1 5 3 15 l4 17 q0 14 -2 27 q-2 13 -8 29 q-6 16 -17.5 26 q-11.5 10 -29.5 16 q-18 6 -46.5 3.5 q-28.5 -2.5 -63.5 -14.5 q-44 -15 -88 -44 q-44 -29 -76.5 -60 q-32.5 -31 -60 -60.5 q-27.5 -29.5 -41.5 -48.5 l-14 -20 q-41 -52 -60.5 -105 q-19.5 -53 -18.5 -80 l0 -26 q8 -59 36.5 -105.5 q28.5 -46.5 69 -75.5 q40.5 -29 94.5 -49.5 q54 -20.5 104 -29.5 q50 -9 105 -13 q91 -7 189 14.5 q98 21.5 182.5 74 q84.5 52.5 118.5 126.5 q21 43 21.5 81.5 q0.5 38.5 -13 62 q-13.5 23.5 -35 42 q-21.5 18.5 -40.5 27.5 q-19 9 -34 11 l0 0 Z" /><glyph glyph-name="qzone" unicode="&#xe60c;" d="M505 840 q-4 -2 -11 -9.5 q-7 -7.5 -7.5 -10 q-0.5 -2.5 -13.5 -31.5 l-69 -142 l-15 -34 q-2 -6 -4 -9 l-14 -26 q-6 -11 -11 -19.5 q-5 -8.5 -8 -10.5 q0 -6 -30.5 -10.5 q-30.5 -4.5 -176.5 -20.5 q-66 -7 -86 -10 q-20 -3 -22 -6.5 q-2 -3.5 -3 -11 q-1 -7.5 1 -13.5 q2 -2 26 -26 l62 -57 q107 -98 126.5 -117 q19.5 -19 13.5 -22 q0 -4 -2 -15 l-41 -217 q-11 -56 -12.5 -70.5 q-1.5 -14.5 5.5 -17.5 q5 -6 13.5 -5 q8.5 1 25.5 9 q14 7 24 13 l169 98 l11 6 l12 7 q33 20 49 18 q4 -1 10.5 -4 q6.5 -3 13.5 -6 q23 -13 94 -54 q71 -41 110 -64 q27 -16 39.5 -21 q12.5 -5 21.5 -2 q12 3 8 38 l-3 16 l-9 50 l-19 106 q-7 33 -5.5 42 q1.5 9 15.5 12 q39 15 32 23 q-1 2 -45 -6 q-38 -7 -60.5 -10 q-22.5 -3 -62.5 -7 q-49 -4 -98 -5 q-49 -1 -109 1 q-50 2 -93.5 5 q-43.5 3 -49.5 5 q-2 2 -1 6 q1 4 5 8 l74 53 q91 64 144.5 102.5 q53.5 38.5 59.5 43.5 q9 8 3.5 10.5 q-5.5 2.5 -39.5 6.5 q-50 7 -88 10 q-38 3 -122 6 l-53 3 l-27 2 q-20 7 84.5 16 q104.5 9 186.5 8 q47 -1 95 -4.5 q48 -3.5 81 -7.5 q28 -4 35.5 -5.5 q7.5 -1.5 6.5 -4.5 q2 -1 -14 -13 q-16 -12 -83 -58 l-182 -125 q-5 -4 -9 -7.5 q-4 -3.5 -4 -6 q0 -2.5 10 -5 q10 -2.5 34 -5.5 q74 -8 161 -11 q87 -3 100 2 q3 2 -1 17 l-3 16 q0 3 25 27.5 q25 24.5 64 60.5 q99 93 122 116 q23 23 18 26 q0 15 -18 20 q-4 1 -24 3 l-182 18 q-51 6 -72.5 8.5 q-21.5 2.5 -23.5 4.5 q-6 -1 -22 31 q-16 32 -64 142 q-34 78 -44.5 99.5 q-10.5 21.5 -14.5 22.5 q-9 8 -20 5 Z" /><glyph glyph-name="donate" unicode="&#xe602;" d="M845 279 q-29 -69 -139 -104.5 q-110 -35.5 -247 -35.5 q-61 0 -120.5 7.5 q-59.5 7.5 -110.5 22.5 q32 -41 123 -67.5 q91 -26.5 214 -26.5 q148 1 246.5 37 q98.5 36 102.5 91 q0 21 -18 40.5 q-18 19.5 -51 35.5 ZM872 505 l0 79 q-21 -11 -43 -19 l0 -83 q25 11 43 23 ZM893 522 q21 20 21 43 l0 47 q-10 -8 -21 -16 l0 -74 ZM565 821 q-148 -1 -247 -37 q-99 -36 -102 -91 q3 -54 102 -90 q99 -36 247 -38 q148 2 246.5 38 q98.5 36 102.5 90 q-4 55 -102.5 91 q-98.5 36 -246.5 37 ZM237 522 l0 74 q-12 8 -21 16 l0 -47 q0 -23 21 -43 ZM300 482 l0 83 q-22 9 -42 19 l0 -80 q18 -12 42 -22 ZM364 461 l0 85 q-22 5 -42 11 l0 -83 q19 -7 42 -13 ZM427 448 l0 85 q-21 3 -42 8 l0 -85 q20 -5 42 -8 ZM491 441 l0 85 q-22 2 -42 4 l0 -85 q20 -2 42 -4 ZM554 438 l0 85 q-21 0 -42 1 l0 -85 q21 -1 42 -1 ZM618 439 l0 85 q-21 -1 -43 -1 l0 -85 q22 0 43 1 ZM681 445 l0 85 q-21 -2 -42 -4 l0 -86 q22 2 42 5 ZM745 456 l0 85 q-21 -4 -43 -8 l0 -85 q22 3 43 8 ZM808 474 l0 84 q-21 -7 -42 -12 l0 -85 q23 6 42 13 ZM787 340 l0 -74 q21 20 21 43 l0 47 q-9 -8 -21 -16 ZM724 309 l0 -83 q24 11 42 23 l0 79 q-21 -11 -42 -19 ZM660 290 l0 -85 q23 6 42 13 l0 84 q-20 -7 -42 -12 ZM597 277 l0 -85 q22 3 42 8 l0 85 q-21 -4 -42 -8 ZM533 270 l0 -86 q22 2 42 5 l0 85 q-21 -2 -42 -4 ZM470 267 l0 -85 q21 0 42 1 l0 85 q-21 -1 -42 -1 ZM406 268 l0 -85 q21 -1 43 -1 l0 85 q-22 0 -43 1 ZM343 274 l0 -85 q20 -2 42 -4 l0 85 q-21 2 -42 4 ZM279 285 l0 -85 q21 -5 43 -8 l0 85 q-22 3 -43 8 ZM187 518 q-36 -17 -56.5 -37.5 q-20.5 -20.5 -20.5 -43.5 q4 -54 102.5 -90 q98.5 -36 246.5 -38 q142 2 239 35 q97 33 109 85 q-53 -17 -115 -25.5 q-62 -8.5 -127 -8.5 q-127 0 -233 31 q-106 31 -145 92 ZM110 309 q0 -23 21 -43 l0 74 q-11 8 -21 16 l0 -47 ZM152 248 q18 -12 43 -22 l0 83 q-23 9 -43 19 l0 -80 ZM216 218 q19 -7 42 -13 l0 85 q-22 5 -42 11 l0 -83 ZM216 75 q0 -23 21 -44 l0 75 q-12 7 -21 15 l0 -46 ZM258 14 q18 -12 42 -22 l0 82 q-22 9 -42 19 l0 -79 ZM322 -17 q19 -7 42 -13 l0 85 q-22 5 -42 12 l0 -84 ZM385 -35 q20 -4 42 -8 l0 85 q-21 4 -42 8 l0 -85 ZM449 -46 q20 -2 42 -4 l0 85 q-22 2 -42 5 l0 -86 ZM512 -51 q21 -2 42 -2 l0 85 q-21 1 -42 2 l0 -85 ZM575 -53 q22 0 43 1 l0 86 q-21 -2 -43 -2 l0 -85 ZM639 -50 q22 2 42 4 l0 85 q-21 -2 -42 -4 l0 -85 ZM702 -43 q22 4 43 8 l0 85 q-21 -4 -43 -7 l0 -86 ZM766 -30 q23 6 42 13 l0 84 q-21 -7 -42 -12 l0 -85 ZM829 -9 q25 11 43 23 l0 79 q-21 -11 -43 -19 l0 -83 ZM914 121 q-10 -8 -21 -15 l0 -75 q21 21 21 44 l0 46 ZM851 323 q48 -22 76.5 -52 q28.5 -30 28.5 -68 l0 -128 q-6 -85 -122.5 -128 q-116.5 -43 -268.5 -43 q-152 0 -268.5 43 q-116.5 43 -123.5 128 l0 114 q-48 22 -76.5 52 q-28.5 30 -28.5 68 l0 128 q0 39 28.5 69 q28.5 30 77.5 52 l-1 7 l0 128 q7 85 123.5 128 q116.5 43 268.5 43 q152 0 268.5 -43 q116.5 -43 122.5 -128 l0 -128 q0 -38 -28.5 -68.5 q-28.5 -30.5 -77.5 -51.5 l1 -8 l0 -114 Z" /><glyph glyph-name="steam" unicode="&#xe60e;" d="M511 834 q-180 -4 -305 -119.5 q-125 -115.5 -143 -294.5 l241 -100 q36 24 79 22 l107 156 l0 2 q2 72 50 120 q48 48 120 50 q72 -2 120 -50 q48 -48 49 -120 q-1 -72 -49 -120 q-48 -48 -120 -50 l-4 0 l-153 -109 l0 -6 q-1 -54 -37 -90 q-36 -36 -90 -37 q-47 0 -81 28.5 q-34 28.5 -44 73.5 l-173 71 q43 -144 159.5 -234 q116.5 -90 273.5 -93 q191 5 318 132 q127 127 132 318 q-5 191 -132 318 q-127 127 -318 132 ZM345 151 l-56 23 q16 -32 50 -47 q37 -14 72 1 q35 15 50 52 q15 37 1.5 72 q-13.5 35 -50.5 52 q-35 14 -70 1 l57 -24 q27 -12 38 -38 q11 -26 -0.5 -53.5 q-11.5 -27.5 -37.5 -38.5 q-26 -11 -54 0 ZM773 500 q-1 48 -33 80 q-32 32 -80 33 q-48 -1 -80 -33 q-32 -32 -33 -80 q1 -48 33 -80 q32 -32 80 -33 q48 1 80 33 q32 32 33 80 ZM575 500 q1 36 25 60 q24 24 60 24 q36 0 60 -24 q24 -24 24 -60 q0 -36 -24 -60 q-24 -24 -60 -24 q-36 0 -60 24 q-24 24 -25 60 Z" /><glyph glyph-name="qq" unicode="&#xe613;" d="M607 27 q-53 0 -91 -4 q-39 4 -91 4 q-78 -2 -133 -23 q-55 -21 -58 -44 q2 -19 50 -22 q48 -3 125 -1 q62 1 108 11 q46 -9 105 -10 q77 -2 125.5 1 q48.5 3 49.5 22 q-2 22 -57 43 q-55 21 -133 23 ZM858 304 q-29 76 -62 150 q2 18 2 36 q-1 146 -72 242.5 q-71 96.5 -210 100.5 q-138 -4 -209.5 -100.5 q-71.5 -96.5 -71.5 -242.5 q0 -17 1 -34 q-11 -24 -27.5 -63.5 q-16.5 -39.5 -34.5 -88.5 q-29 -82 -33.5 -141 q-4.5 -59 6.5 -67 q8 -3 30 21.5 q22 24.5 48 69.5 q16 -107 88 -174.5 q72 -67.5 203 -70.5 q132 3 203.5 70 q71.5 67 88.5 174 q25 -44 47 -68 q22 -24 30 -21 q11 8 6 67 q-5 59 -33 140 ZM441 722 q-21 -2 -34.5 -22 q-13.5 -20 -13 -50 q0.5 -30 15 -50 q14.5 -20 35.5 -19.5 q21 0.5 34.5 20.5 q13.5 20 13 50.5 q-0.5 30.5 -15 50 q-14.5 19.5 -35.5 20.5 ZM592 721 q-21 0 -35.5 -20 q-14.5 -20 -15 -50 q-0.5 -30 13 -50 q13.5 -20 35 -20.5 q21.5 -0.5 36 19 q14.5 19.5 15 49.5 q0.5 30 -13.5 50.5 q-14 20.5 -35 21.5 ZM696 407 q-81 -14 -180.5 -14 q-99.5 0 -179.5 14 q-26 -35 -33 -82.5 q-7 -47.5 -6 -103.5 q0 -105 56 -174.5 q56 -69.5 163 -72.5 q108 3 164 72.5 q56 69.5 56 174.5 q1 56 -6 104 q-7 48 -34 82 ZM516 556 q-73 0 -122 -11 q-49 -11 -51 -23 q4 -14 59.5 -35 q55.5 -21 113.5 -23 q58 2 114 23.5 q56 21.5 60 34.5 q-2 11 -51 22.5 q-49 11.5 -123 11.5 ZM796 455 q0 0 0 1 q-53 -17 -125 -27 q-72 -10 -155 -10 q-83 0 -155 10 q-72 10 -125 27 q-23 -49 -43 -100 q66 -22 145 -34 l0 -129 l23 -4 q21 -3 49 -5 q19 0 35 1 l16 2 l0 123 q27 -2 55 -2 q91 0 173 12.5 q82 12.5 149 34.5 q-20 51 -42 100 ZM457 672 q-9 0 -15 -8 q-6 -8 -6 -20 q0 -12 6 -20 q6 -8 15 -8 q9 0 15.5 8 q6.5 8 6.5 20 q0 12 -6.5 20 q-6.5 8 -15.5 8 ZM618 654 q0 1 -7.5 5 q-7.5 4 -23.5 2 q-16 -2 -23.5 -8 q-7.5 -6 -8.5 -8 l-2 -4 q-2 -4 1 -7 q3 -3 6 -1 l4 3 q0 1 6.5 6.5 q6.5 5.5 16.5 6 q10 0.5 15 -1.5 l9 -5 q4 -1 6.5 2.5 q2.5 3.5 1.5 6.5 l-1 3 Z" /><glyph glyph-name="github" unicode="&#xe614;" d="M469 -75 q-36 1 -59.5 24.5 q-23.5 23.5 -24.5 58.5 l-1 60 q-121 -19 -162 21.5 q-41 40.5 -38 48.5 q-22 51 -43.5 69.5 q-21.5 18.5 -22.5 17.5 q-36 27 -19 32.5 q17 5.5 23 3.5 q45 -6 68 -31.5 q23 -25.5 23 -29.5 q42 -64 93.5 -64.5 q51.5 -0.5 79.5 15.5 q4 28 14.5 48 q10.5 20 23.5 31 q-104 7 -185.5 67.5 q-81.5 60.5 -85.5 226.5 q0 49 16 89 q16 40 45 71 q-7 12 -11.5 54 q-4.5 42 17.5 104 q-1 3 39 -2 q40 -5 125 -59 q73 20 149 20 q76 0 149 -20 q84 54 124 59 q40 5 39 2 q22 -63 17.5 -104.5 q-4.5 -41.5 -11.5 -53.5 q29 -31 45 -71 q16 -40 16 -89 q-4 -167 -86 -227 q-82 -60 -185 -66 q16 -14 27.5 -41.5 q11.5 -27.5 12.5 -68.5 l0 -86 q0 -27 0 -27 q-2 -35 -25.5 -58.5 q-23.5 -23.5 -59.5 -24.5 l-127 0 Z" /><glyph glyph-name="activity" unicode="&#xe6de;" d="M840 5 q-1 -3 0 -3 l-654 -1 q-1 1 -2 4 l0 543 l656 0 l0 -543 ZM184 727 q1 3 0 3 l146 0 l0 -18 q0 -16 10.5 -26 q10.5 -10 26 -10 q15.5 0 25.5 10 q10 10 11 26 l0 18 l218 0 l0 -18 q1 -16 11 -26 q10 -10 25.5 -10 q15.5 0 26 10 q10.5 10 10.5 26 l0 18 l145 0 q1 -2 1 -3 l0 -106 l-656 0 l0 106 ZM839 803 l-145 0 l0 18 q0 15 -10.5 25.5 q-10.5 10.5 -26 10.5 q-15.5 0 -25.5 -10.5 q-10 -10.5 -11 -25.5 l0 -18 l-218 0 l0 18 q-1 15 -11 25.5 q-10 10.5 -25.5 10.5 q-15.5 0 -26 -10.5 q-10.5 -10.5 -10.5 -25.5 l0 -18 l-146 0 q-31 -1 -51.5 -22.5 q-20.5 -21.5 -20.5 -53.5 l0 -722 q0 -32 20.5 -53.5 q20.5 -21.5 51.5 -22.5 l656 0 q31 1 51.5 22.5 q20.5 21.5 20.5 53.5 l0 722 q0 32 -21 53.5 q-21 21.5 -52 22.5 ZM366 329 l292 0 q15 1 25.5 11 q10.5 10 10.5 25.5 q0 15.5 -10.5 26 q-10.5 10.5 -25.5 10.5 l-292 0 q-15 0 -25.5 -10.5 q-10.5 -10.5 -10.5 -26 q0 -15.5 10.5 -25.5 q10.5 -10 25.5 -11 ZM366 147 l292 0 q15 1 25.5 11 q10.5 10 10.5 25.5 q0 15.5 -10.5 26 q-10.5 10.5 -25.5 10.5 l-292 0 q-15 0 -25.5 -10.5 q-10.5 -10.5 -10.5 -26 q0 -15.5 10.5 -25.5 q10.5 -10 25.5 -11 Z" /><glyph glyph-name="browse" unicode="&#xe6e4;" d="M877 363 q2 -17 -84.5 -126 q-86.5 -109 -290.5 -125 q-202 15 -288 122.5 q-86 107.5 -87 131.5 q-3 7 -3 17.5 q0 10.5 4 19.5 q0 17 89.5 127 q89.5 110 284.5 126 q195 -15 284 -123 q89 -108 92 -133 q3 -6 3 -17 q0 -11 -4 -20 ZM948 434 q-2 27 -107.5 154.5 q-105.5 127.5 -338.5 145.5 q-232 -18 -337.5 -145.5 q-105.5 -127.5 -106.5 -153.5 q-12 -23 -12.5 -51 q-0.5 -28 10.5 -49 q-2 -21 100.5 -151.5 q102.5 -130.5 345.5 -149.5 q244 19 346.5 149.5 q102.5 130.5 100.5 149.5 q10 24 9.5 52 q-0.5 28 -10.5 49 ZM580 335 q-1 -33 -23 -54.5 q-22 -21.5 -54.5 -21.5 q-32.5 0 -54.5 21.5 q-22 21.5 -23 54.5 l0 88 q1 33 23 55 q22 22 54.5 22 q32.5 0 54.5 -22 q22 -22 23 -55 l0 -88 ZM502 578 q-65 -1 -109 -45 q-44 -44 -46 -110 l0 -88 q2 -65 46 -109 q44 -44 109 -46 q66 2 110 46 q44 44 46 109 l0 88 q-2 66 -46 109.5 q-44 43.5 -110 45.5 Z" /><glyph glyph-name="brush" unicode="&#xe6e5;" d="M821 483 l-229 229 l86 86 l229 -228 l-86 -87 ZM348 10 l-229 229 l414 414 l229 -228 l-415 -415 l1 0 ZM118 9 l0 113 l113 -113 l-113 0 ZM966 628 l-229 229 q-24 24 -58.5 24 q-34.5 0 -58.5 -24 l-560 -560 q-14 -14 -20 -32.5 q-6 -18.5 -3 -37.5 q-2 -5 -2 -11 l0 -207 q1 -35 24 -58.5 q23 -23.5 58 -24.5 l208 0 q5 1 11 2 q5 -1 11 -1 q33 0 59 25 l559 559 q25 26 25 59 q0 33 -24 58 Z" /><glyph glyph-name="collection" unicode="&#xe6ea;" d="M734 342 q-18 -19 -27 -46 q-9 -27 -5 -54 l33 -192 l-171 91 q-24 12 -53 12 q-29 0 -52 -12 l-171 -91 l32 192 q4 27 -4.5 54 q-8.5 27 -27.5 46 l-139 137 l192 28 q26 4 49.5 21 q23.5 17 35.5 41 l85 174 l86 -174 q12 -24 35 -41 q23 -17 49 -21 l192 -28 l-139 -137 ZM956 451 q27 28 16.5 60.5 q-10.5 32.5 -48.5 38.5 l-231 34 q-7 1 -15 7 q-8 6 -12 12 l-103 211 q-8 17 -21.5 26.5 q-13.5 9.5 -30 9.5 q-16.5 0 -30 -9.5 q-13.5 -9.5 -22.5 -26.5 l-103 -211 q-3 -6 -11.5 -12 q-8.5 -6 -14.5 -7 l-231 -34 q-39 -6 -49.5 -38.5 q-10.5 -32.5 17.5 -60.5 l167 -164 q4 -5 7.5 -15 q3.5 -10 2.5 -17 l-40 -231 q-3 -19 2.5 -34.5 q5.5 -15.5 19 -25.5 q13.5 -10 30 -10 q16.5 0 32.5 9 l207 109 q6 3 16 3 q10 0 16 -3 l207 -109 q17 -9 33 -9 q16 0 30 10 q27 20 21 60 l-39 231 q-1 7 2 17 q3 10 8 15 l167 164 Z" /><glyph glyph-name="createtask" unicode="&#xe6ee;" d="M730 550 l-290 0 q-17 0 -29 12 q-12 12 -12 29.5 q0 17.5 12 29 q12 11.5 29 12.5 l290 0 q18 -1 29.5 -12.5 q11.5 -11.5 11.5 -29 q0 -17.5 -11.5 -29.5 q-11.5 -12 -29.5 -12 ZM730 343 l-290 0 q-23 0 -35 20.5 q-12 20.5 0 41 q12 20.5 35 20.5 l290 0 q24 0 35.5 -20.5 q11.5 -20.5 0 -41 q-11.5 -20.5 -35.5 -20.5 ZM730 135 l-290 0 q-17 1 -29 12.5 q-12 11.5 -12 29 q0 17.5 12 29.5 q12 12 29 12 l290 0 q18 0 29.5 -12 q11.5 -12 11.5 -29.5 q0 -17.5 -11.5 -29 q-11.5 -11.5 -29.5 -12.5 ZM305 550 q-18 0 -29.5 12 q-11.5 12 -11.5 29.5 q0 17.5 11.5 29 q11.5 11.5 29 11.5 q17.5 0 29.5 -11.5 q12 -11.5 12 -29 q0 -17.5 -12 -29.5 q-12 -12 -29 -12 ZM305 343 q-17 1 -28 12.5 q-11 11.5 -11 28.5 q0 17 11 28.5 q11 11.5 28 12 q17 0.5 29 -11 q12 -11.5 12 -29.5 q0 -18 -12 -29.5 q-12 -11.5 -29 -11.5 ZM305 135 q-17 2 -28 13.5 q-11 11.5 -11 28.5 q0 17 11 28.5 q11 11.5 28 12 q17 0.5 29 -11.5 q12 -12 12 -29.5 q0 -17.5 -12 -29 q-12 -11.5 -29 -12.5 ZM885 840 l-746 0 q-35 -1 -58.5 -24.5 q-23.5 -23.5 -24.5 -58.5 l0 -746 q1 -35 24.5 -58.5 q23.5 -23.5 58.5 -24.5 l746 0 q35 1 58.5 24.5 q23.5 23.5 24.5 58.5 l0 746 q-1 35 -24.5 58.5 q-23.5 23.5 -58.5 24.5 Z" /><glyph glyph-name="editor" unicode="&#xe6f5;" d="M485 357 q11 -12 27 -12 q16 0 27 12 l369 368 q12 12 12 27.5 q0 15.5 -12 27.5 q-12 12 -27.5 12 q-15.5 0 -27.5 -12 l-368 -369 q-12 -11 -12 -27 q0 -16 12 -27 ZM900 423 q-16 -1 -27 -11.5 q-11 -10.5 -11 -27.5 l0 -350 l-700 0 l0 700 l350 0 q17 0 27.5 11 q10.5 11 10.5 27.5 q0 16.5 -10.5 27.5 q-10.5 11 -27.5 11 l-350 0 q-33 -1 -54.5 -22.5 q-21.5 -21.5 -22.5 -54.5 l0 -700 q1 -33 22.5 -54.5 q21.5 -21.5 54.5 -22.5 l700 0 q33 1 54.5 22.5 q21.5 21.5 22.5 54.5 l0 350 q0 17 -11 27.5 q-11 10.5 -28 11.5 Z" /><glyph glyph-name="interactive" unicode="&#xe704;" d="M745 131 q-14 0 -24 -8 q-10 -8 -13 -20 l-283 0 q-22 -1 -42.5 -12 q-20.5 -11 -32.5 -30 l-42 -39 l0 15 q0 9 -5 18 q-11 21 -33 34 q-22 13 -46 14 l-62 0 l0 436 l13 0 q22 1 33 20 q11 19 0 38 q-11 19 -33 20 l-25 0 q-28 -1 -46 -20 q-18 -19 -19 -47 l0 -458 q1 -28 19 -47 q18 -19 46 -20 l74 0 q3 -1 6 -3 l1 -55 q0 -13 8 -24 q19 -24 49 -25 l0 0 q28 0 47 22 l72 69 q4 4 8 9 q4 5 10 7 l294 0 q19 0 34 9.5 q15 9.5 24 26.5 q7 10 7 23 l0 8 q-1 17 -11.5 27.5 q-10.5 10.5 -27.5 11.5 ZM900 336 l-61 0 q-30 -1 -55 -21 q-6 -4 -11 -9 q-8 -8 -13 -17.5 q-5 -9.5 -5 -18.5 l0 -15 l-42 39 q-5 7 -10 12 q-13 14 -30.5 21.5 q-17.5 7.5 -35.5 8.5 l-280 0 l0 436 l543 0 l0 -436 ZM972 811 q-8 18 -23.5 28.5 q-15.5 10.5 -35.5 10.5 l-569 0 q-20 0 -35.5 -10.5 q-15.5 -10.5 -23.5 -28.5 q-6 -13 -6 -28 l0 -458 q0 -10 3 -19 q6 -21 22.5 -34.5 q16.5 -13.5 39.5 -13.5 l293 0 q7 -1 10.5 -6.5 q3.5 -5.5 8.5 -9.5 l72 -69 q19 -22 47 -22 l0 0 q29 1 49 25 q8 11 8 24 l1 55 q2 2 6 3 l74 0 q23 0 39.5 13.5 q16.5 13.5 22.5 34.5 q3 9 3 19 l0 458 q0 15 -6 28 ZM531 617 q-15 0 -28.5 -7.5 q-13.5 -7.5 -21.5 -21.5 q-8 -14 -8 -29.5 q0 -15.5 8 -29 q8 -13.5 21.5 -21 q13.5 -7.5 28.5 -8.5 q25 1 41.5 17.5 q16.5 16.5 16.5 41 q0 24.5 -16.5 41 q-16.5 16.5 -41.5 17.5 ZM726 617 q-25 -1 -41.5 -17.5 q-16.5 -16.5 -16.5 -41 q0 -24.5 16.5 -41 q16.5 -16.5 41 -16.5 q24.5 0 41 16.5 q16.5 16.5 16.5 41 q0 24.5 -16.5 41 q-16.5 16.5 -40.5 17.5 Z" /><glyph glyph-name="label" unicode="&#xe706;" d="M858 423 l-405 -405 l-329 329 l404 405 q7 1 28.5 2 q21.5 1 63.5 1 q80 0 154.5 -2.5 q74.5 -2.5 81.5 -3.5 q3 -106 4 -199.5 q1 -93.5 -2 -126.5 ZM933 750 q-1 33 -22.5 55 q-21.5 22 -53.5 23 l-81 2 q-75 2 -156 3 q-84 0 -108.5 -4.5 q-24.5 -4.5 -30.5 -14.5 l-412 -412 q-23 -24 -23 -55 q0 -31 23 -55 l329 -329 q23 -22 55 -22 q32 0 55 22 l412 412 q11 0 16.5 62 q5.5 62 -3.5 313 ZM630 492 q-25 1 -41 17.5 q-16 16.5 -16 41 q0 24.5 16 41 q16 16.5 41 16.5 q25 0 41.5 -16.5 q16.5 -16.5 16.5 -41 q0 -24.5 -16.5 -41 q-16.5 -16.5 -41.5 -17.5 ZM630 687 q-58 -2 -96 -40.5 q-38 -38.5 -40 -95.5 q2 -58 40 -96.5 q38 -38.5 96 -39.5 q58 1 96.5 39.5 q38.5 38.5 39.5 96.5 q-1 57 -39.5 95.5 q-38.5 38.5 -96.5 40.5 Z" /><glyph glyph-name="label_fill" unicode="&#xe708;" d="M497 504 q2 47 33.5 79 q31.5 32 78.5 33 q48 -1 79.5 -33 q31.5 -32 32.5 -79 q-1 -48 -32.5 -79.5 q-31.5 -31.5 -79.5 -32.5 q-47 1 -78.5 32.5 q-31.5 31.5 -33.5 79.5 ZM859 668 q-1 27 -18.5 45 q-17.5 18 -44.5 19 l-66 2 q-62 2 -129 2 q-69 0 -89.5 -3.5 q-20.5 -3.5 -25.5 -11.5 l-339 -339 q-19 -20 -19 -45.5 q0 -25.5 19 -45.5 l271 -271 q19 -19 45.5 -19 q26.5 0 45.5 18 l339 340 q9 0 14 51 q5 51 -3 258 Z" /><glyph glyph-name="like" unicode="&#xe707;" d="M858 397 l-345 -356 l-345 354 q-22 27 -33 59 q-11 32 -11 66 q2 83 56.5 138.5 q54.5 55.5 137.5 57.5 q49 0 91.5 -23 q42.5 -23 70.5 -65 l32 -49 l32 49 q28 42 70.5 65 q42.5 23 91.5 23 q83 -2 137.5 -57.5 q54.5 -55.5 56.5 -138.5 q0 -35 -11 -66.5 q-11 -31.5 -31 -56.5 ZM706 794 q-55 0 -105 -21.5 q-50 -21.5 -89 -60.5 q-39 39 -89 60.5 q-50 21.5 -105 21.5 q-116 -3 -192.5 -80.5 q-76.5 -77.5 -79.5 -193.5 q0 -48 16.5 -93 q16.5 -45 47.5 -84 l347 -357 q23 -22 55 -22 q32 0 55 22 l349 360 q30 37 46 81.5 q16 44.5 16 92.5 q-3 116 -79.5 193.5 q-76.5 77.5 -192.5 80.5 Z" /><glyph glyph-name="users" unicode="&#xe70e;" d="M512 -4 q-73 0 -140.5 26 q-67.5 26 -121.5 76 q53 17 124.5 34.5 q71.5 17.5 135.5 18.5 q64 -1 137 -19 q73 -18 125 -35 q-54 -49 -120.5 -75 q-66.5 -26 -139.5 -26 ZM512 267 q-49 2 -82 35 q-33 33 -35 82 l0 116 q2 50 35 83 q33 33 82 34 q49 -1 82 -34 q33 -33 35 -83 l0 -116 q-2 -49 -35 -82 q-33 -33 -82 -35 ZM512 772 q165 -4 274.5 -113.5 q109.5 -109.5 113.5 -274.5 q0 -61 -18 -118 q-18 -57 -53 -106 q-33 12 -91.5 29 q-58.5 17 -125.5 29 q43 26 68.5 69.5 q25.5 43.5 25.5 96.5 l0 116 q-2 83 -57 138 q-55 55 -137 57 q-82 -2 -137 -57 q-55 -55 -57 -138 l0 -116 q0 -53 25.5 -96 q25.5 -43 67.5 -69 q-66 -12 -124 -29 q-58 -17 -93 -29 q-34 49 -52 106 q-18 57 -18 117 q4 165 113.5 274.5 q109.5 109.5 274.5 113.5 ZM512 850 q-198 -5 -329.5 -136.5 q-131.5 -131.5 -136.5 -329.5 q5 -198 136.5 -329.5 q131.5 -131.5 329.5 -136.5 q198 5 329.5 136.5 q131.5 131.5 136.5 329.5 q-5 198 -136.5 329.5 q-131.5 131.5 -329.5 136.5 Z" /><glyph glyph-name="picture" unicode="&#xe716;" d="M357 11 l315 314 l213 -213 l0 -101 l-528 0 ZM139 757 l746 0 l0 -528 l-184 184 q-12 12 -29.5 12 q-17.5 0 -29.5 -12 l-402 -402 l-101 0 l0 746 ZM885 840 l-746 0 q-35 -1 -58.5 -24.5 q-23.5 -23.5 -24.5 -58.5 l0 -746 q1 -35 24.5 -58.5 q23.5 -23.5 58.5 -24.5 l746 0 q35 1 58.5 24.5 q23.5 23.5 24.5 58.5 l0 746 q-1 35 -24.5 58.5 q-23.5 23.5 -58.5 24.5 ZM388 550 q17 0 29 -12.5 q12 -12.5 12 -29.5 q0 -17 -12 -29 q-12 -12 -29 -12 q-17 0 -29.5 12 q-12.5 12 -12 29.5 q0.5 17.5 12 29 q11.5 11.5 29.5 12.5 ZM388 384 q52 1 87.5 36.5 q35.5 35.5 36.5 87.5 q-1 53 -36.5 88 q-35.5 35 -87.5 37 q-53 -2 -88 -37 q-35 -35 -37 -88 q2 -52 37 -87.5 q35 -35.5 88 -36.5 Z" /><glyph glyph-name="praise" unicode="&#xe71a;" d="M819 456 l-76 -354 q0 -2 -2.5 -4 q-2.5 -2 -4.5 -2 l-384 0 l0 384 l3 0 l0 1 q68 9 111.5 57.5 q43.5 48.5 45.5 117.5 l0 16 q1 13 10 21.5 q9 8.5 22 8.5 q13 0 22 -8.5 q9 -8.5 10 -21.5 l2 0 q6 -27 4 -69.5 q-2 -42.5 -28 -70.5 q-7 -7 -9 -16.5 q-2 -9.5 1.5 -18.5 q3.5 -9 11.5 -14.5 q8 -5.5 18 -5.5 q7 0 13 3 l211 0 q11 0 16.5 -6.5 q5.5 -6.5 2.5 -17.5 ZM192 480 l96 0 l0 -384 l-96 0 l0 384 ZM866 514 q-12 14 -29 22 q-17 8 -37 8 l-165 0 q15 53 11 98 q-4 45 -6 51 q-2 6 -6 11 q-11 29 -35 46 q-24 17 -55 18 q-39 -1 -65.5 -26.5 q-26.5 -25.5 -29.5 -64.5 l-1 0 l0 -21 q-1 -48 -32.5 -79.5 q-31.5 -31.5 -79.5 -32.5 l-144 0 q-27 -1 -45 -19 q-18 -18 -19 -45 l0 -384 q1 -27 19 -45 q18 -18 45 -19 l544 0 q25 1 44.5 16.5 q19.5 15.5 25.5 40.5 l76 354 q4 20 0 38 q-4 18 -16 33 Z" /><glyph glyph-name="remind" unicode="&#xe71f;" d="M634 133 l-446 0 q20 43 39 96 q19 53 21 96 l0 195 q2 107 77 178.5 q75 71.5 187 73.5 q112 -2 187 -73.5 q75 -71.5 77 -178.5 l0 -192 q2 -44 21 -98 q19 -54 39 -97 l-202 0 ZM512 17 q-23 0 -41 10.5 q-18 10.5 -29 28.5 l140 0 q-11 -18 -29 -28.5 q-18 -10.5 -41 -10.5 ZM932 115 l3 1 q-19 35 -46.5 100.5 q-27.5 65.5 -30.5 111.5 l0 192 q-4 140 -101.5 233 q-97.5 93 -244.5 97 q-147 -4 -244.5 -97 q-97.5 -93 -101.5 -233 l0 -195 q-2 -39 -27 -101.5 q-25 -62.5 -50 -106.5 l3 -2 q-7 -9 -7 -21 q0 -16 11.5 -27 q11.5 -11 29.5 -11 l229 0 q15 -51 57 -83.5 q42 -32.5 100 -32.5 q58 0 100 32.5 q42 32.5 57 83.5 l229 0 q18 0 29.5 11 q11.5 11 11.5 27 q0 12 -7 21 Z" /><glyph glyph-name="share" unicode="&#xe729;" d="M802 11 q-35 1 -58.5 24.5 q-23.5 23.5 -23.5 58.5 q0 35 23.5 58.5 q23.5 23.5 58.5 23.5 q35 0 58.5 -23.5 q23.5 -23.5 23.5 -58.5 q0 -35 -23.5 -58.5 q-23.5 -23.5 -58.5 -24.5 ZM222 301 q-35 1 -58.5 24.5 q-23.5 23.5 -23.5 58.5 q0 35 23.5 58.5 q23.5 23.5 58.5 23.5 q35 0 58.5 -23.5 q23.5 -23.5 23.5 -58.5 q0 -35 -23.5 -58.5 q-23.5 -23.5 -58.5 -24.5 ZM802 757 q35 -1 58.5 -24.5 q23.5 -23.5 23.5 -58.5 q0 -35 -23.5 -58.5 q-23.5 -23.5 -58.5 -23.5 q-35 0 -58.5 23.5 q-23.5 23.5 -23.5 58.5 q0 35 23.5 58.5 q23.5 23.5 58.5 24.5 ZM802 260 q-49 -1 -88.5 -26 q-39.5 -25 -60.5 -69 l-265 151 q-6 4 -13 5 q13 30 13 63 q-1 13 -3 25 l3 1 l284 163 q24 -31 57.5 -47.5 q33.5 -16.5 72.5 -17.5 q70 2 117 49 q47 47 49 117 q-2 70 -49 117 q-47 47 -117 49 q-70 -2 -117 -49 q-47 -47 -49 -117 q1 -13 3 -25 l-3 -1 l-284 -163 q-24 31 -57.5 47.5 q-33.5 16.5 -72.5 17.5 q-70 -2 -117 -49 q-47 -47 -49 -117 q2 -70 49 -117 q47 -47 117 -49 q31 0 59 11 q28 11 50 32 q6 -11 15 -17 l292 -166 q7 -64 52.5 -106 q45.5 -42 111.5 -44 q70 2 117 49 q47 47 49 117 q-2 70 -49 117 q-47 47 -117 49 Z" /><glyph glyph-name="search" unicode="&#xe741;" d="M145 444 q3 132 91 220 q88 88 220 91 q132 -3 219.5 -91 q87.5 -88 90.5 -220 q-3 -132 -90.5 -219.5 q-87.5 -87.5 -219.5 -91.5 q-132 4 -220 91.5 q-88 87.5 -91 219.5 ZM912 4 l-174 174 q51 54 78.5 122.5 q27.5 68.5 27.5 143.5 q-4 165 -113.5 274.5 q-109.5 109.5 -274.5 114.5 q-165 -5 -275 -114.5 q-110 -109.5 -114 -274.5 q4 -165 114 -274.5 q110 -109.5 275 -113.5 q60 0 117 18 q57 18 106 53 l178 -178 q12 -11 27.5 -11 q15.5 0 27 11.5 q11.5 11.5 11.5 27 q0 15.5 -11 27.5 Z" /><glyph glyph-name="email" unicode="&#xe616;" d="M512 345 l416 347 q-4 1 -7 1 l-818 0 q-3 0 -7 -1 l416 -347 ZM958 656 q0 6 -2 11 l-295 -246 l295 -295 q2 5 2 9 l0 521 ZM68 667 q-2 -5 -2 -11 l0 -521 q0 -4 2 -9 l295 295 l-295 246 ZM633 398 l-109 -91 q-5 -4 -12 -4 q-7 0 -12 4 l-108 90 l-298 -297 q4 -1 9 -2 l818 0 q5 1 9 2 l-297 298 Z" /><glyph glyph-name="arrow" unicode="&#xe631;" d="M590 81 l274 275 q16 17 16 38.5 q0 21.5 -16 38.5 l-274 275 q-17 16 -39 16 q-22 0 -38.5 -16.5 q-16.5 -16.5 -16.5 -38.5 q0 -22 16 -39 l181 -181 l-527 0 q-23 0 -38.5 -15.5 q-15.5 -15.5 -15.5 -39 q0 -23.5 15.5 -39 q15.5 -15.5 38.5 -15.5 l527 0 l-181 -181 q-16 -17 -16 -39 q0 -22 16.5 -38.5 q16.5 -16.5 38.5 -16.5 q22 0 39 16 Z" /><glyph glyph-name="download" unicode="&#xe794;" d="M551 225 l159 159 q12 12 27 12 q15 0 27 -12 q12 -12 12 -27 q0 -15 -12 -27 l-190 -191 q-24 -23 -54 -23 q-30 0 -55 23 l-190 191 q-12 12 -12 27 q0 15 12 27 q12 12 27 12 q15 0 27 -12 l148 -148 l0 575 q0 18 10.5 28.5 q10.5 10.5 28.5 10.5 q18 0 28 -10.5 q10 -10.5 11 -28.5 l0 -586 l-4 0 ZM900 267 q1 18 11 28.5 q10 10.5 28 10.5 q18 0 28.5 -10.5 q10.5 -10.5 10.5 -28.5 l0 -194 q-1 -50 -33.5 -82.5 q-32.5 -32.5 -82.5 -33.5 l-700 0 q-50 1 -82.5 33.5 q-32.5 32.5 -33.5 82.5 l0 194 q0 18 10.5 28.5 q10.5 10.5 28.5 10.5 q18 0 28 -10.5 q10 -10.5 11 -28.5 l0 -194 q0 -17 10.5 -27.5 q10.5 -10.5 27.5 -11.5 l700 0 q17 1 27.5 11.5 q10.5 10.5 10.5 27.5 l0 194 Z" /><glyph glyph-name="arrowdown" unicode="&#xe8eb;" d="M939 563 q0 -10 -7 -18 l-386 -399 q-20 -20 -46 -20.5 q-26 -0.5 -47 18.5 l-397 401 q-7 7 -7 17 q0 10 7.5 17.5 q7.5 7.5 17 7.5 q9.5 0 17.5 -8 l397 -400 q5 -4 11.5 -4 q6.5 0 11.5 5 l386 399 q7 8 17 8 q10 0 17.5 -7.5 q7.5 -7.5 7.5 -16.5 ZM54 124 l0 0 Z" /><glyph glyph-name="packup" unicode="&#xea78;" d="M835 488 l-293 293 q-18 17 -41.5 17 q-23.5 0 -41.5 -17 l-293 -293 q-17 -18 -17 -41.5 q0 -23.5 17.5 -41 q17.5 -17.5 41 -17.5 q23.5 0 41.5 17 l193 193 l0 -562 q1 -24 17.5 -41 q16.5 -17 41.5 -17 q25 0 41.5 17 q16.5 17 16.5 41 l0 562 l193 -193 q18 -17 41.5 -17 q23.5 0 41 17.5 q17.5 17.5 17.5 41 q0 23.5 -17 41.5 Z" /><glyph glyph-name="good-e" unicode="&#xe9a1;" d="M248 849 q-38 0 -74 -15 q-34 -15 -62 -42 q-27 -28 -42 -62 q-15 -36 -15 -74 q0 -40 15 -75 q15 -35 42 -62 q28 -28 62 -42 q36 -15 74 -15 l181 0 q5 0 9 4 q4 4 4 9 l0 181 q0 38 -15 74 q-15 34 -42 62 q-28 27 -62 42 q-36 15 -75 15 ZM248 888 q99 -3 165 -68 q65 -66 68 -164 l0 -181 q-1 -22 -15 -37 q-15 -15 -37 -16 l-181 0 q-98 3 -164 68 q-65 66 -68 166 q3 98 68 164 q66 65 164 68 ZM429 306 l-181 0 q-38 0 -74 -15 q-34 -14 -62 -42 q-27 -27 -42 -62 q-15 -35 -15 -75 q0 -38 15 -74 q15 -34 42 -62 q28 -27 62 -42 q36 -15 74 -15 q39 0 74 15 q35 15 63 42 q27 28 42 62 q15 36 15 74 l0 181 q0 5 -4 9 q-4 4 -9 4 ZM429 346 q22 -1 37 -16 q14 -15 15 -37 l0 -181 q-3 -98 -68 -164 q-66 -65 -165 -68 q-98 3 -164 68 q-65 66 -68 164 q3 100 68 166 q66 65 164 68 l181 0 ZM791 849 q-39 0 -74 -15 q-35 -15 -62 -42 q-28 -28 -43 -62 q-14 -36 -14 -74 l0 -181 q0 -5 3 -9 q4 -4 9 -4 l181 0 q39 0 74 15 q35 14 62 42 q28 27 43 62 q14 35 14 75 q0 38 -14 74 q-15 34 -43 62 q-27 27 -62 42 q-35 15 -74 15 ZM791 888 q99 -3 165 -68 q65 -66 68 -164 q-3 -100 -68 -166 q-66 -65 -165 -68 l-181 0 q-21 1 -36 16 q-15 15 -16 37 l0 181 q3 98 68 164 q66 65 165 68 ZM791 306 l-181 0 q-5 0 -9 -4 q-3 -4 -3 -9 l0 -181 q0 -38 14 -74 q15 -34 43 -62 q27 -27 62 -42 q35 -15 74 -15 q39 0 74 15 q35 15 62 42 q28 28 43 62 q14 36 14 74 q0 40 -14 75 q-15 35 -43 62 q-27 28 -62 42.5 q-35 14.5 -74 14.5 ZM791 346 q99 -3 165 -68 q65 -66 68 -166 q-3 -98 -68 -164 q-66 -65 -165 -68 q-99 3 -165 68 q-65 66 -68 164 l0 181 q1 22 16 37 q15 15 36 16 l181 0 Z" /><glyph glyph-name="male" unicode="&#xe9a2;" d="M1026 851 l0 -5 l0 -280 q0 -15 -10 -25 q-12 -11 -27 -11 q-17 0 -27 11 q-10 10 -10 25 l0 195 l-241 -242 q42 -50 66 -114 q23 -64 24 -135 q-5 -165 -115 -275 q-110 -110 -275 -115 q-167 5 -276 114 q-111 111 -115 276 q4 167 115 276 q109 111 276 114 q69 0 132 -23.5 q63 -23.5 114 -65.5 l242 242 l-194 0 q-16 1 -26 11.5 q-10 10.5 -12 26.5 q2 15 12 27 q10 10 26 10 l284 0 q13 0 24 -9 q6 -5 10 -13 q3 -6 3 -15 ZM411 -45 q133 3 222 93 q89 89 93 222 q-4 135 -93 224 q-89 89 -222 91 q-135 -2 -224 -91 q-89 -89 -93 -224 q4 -133 93 -222 q89 -90 224 -93 Z" /><glyph glyph-name="erwei" unicode="&#xe9a3;" d="M174 578 l0 155 l156 0 l0 -155 l-156 0 ZM19 -120 l0 465 l466 0 l0 -465 l-466 0 ZM97 268 l0 -310 l310 0 l0 310 l-310 0 ZM174 35 l0 155 l156 0 l0 -155 l-156 0 ZM562 888 l465 0 l0 -465 l-465 0 l0 465 ZM950 500 l0 310 l-310 0 l0 -310 l310 0 ZM950 190 l0 155 l77 0 l0 -232 l-310 0 l0 77 l-77 0 l0 -310 l-78 0 l0 465 l233 0 l0 -155 l155 0 ZM19 423 l0 465 l466 0 l0 -465 l-466 0 ZM97 810 l0 -310 l310 0 l0 310 l-310 0 ZM872 733 l0 -155 l-155 0 l0 155 l155 0 ZM950 -120 l0 155 l77 0 l0 -155 l-77 0 ZM795 -120 l0 155 l77 0 l0 -155 l-77 0 Z" /><glyph glyph-name="server" unicode="&#xe9a4;" d="M759 50 q8 0 16 4 q7 2 14 8 q6 5 9 12 q2 8 3 16 q-1 16 -11 27 q-11 10 -27 12 q-16 0 -27 -11 q-12 -11 -13 -27 q0 -16 10 -27 q11 -11 26 -14 ZM627 50 q9 0 15 4 q8 2 14 8 q6 5 9 12 q4 8 4 16 q-2 16 -12 27 q-10 10 -27 12 q-16 0 -27 -11 q-12 -11 -13 -27 q0 -16 10 -27 q11 -11 27 -14 ZM154 50 l233 0 l0 79 l-233 0 l0 -79 ZM950 143 l0 -216 q0 -10 -4 -19 q-4 -8 -11 -14 q-8 -7 -17 -11 q-8 -3 -18 -3 l-827 0 q-11 0 -20 3 q-9 4 -16 9 q-7 7 -11 16 q-3 9 -4 19 l0 216 l928 0 ZM762 717 q16 2 26 13 q10 10 11 27 q-3 16 -15 27 q-12 10 -28 10 q-17 -1 -28 -13 q-11 -10 -12 -27 q-19 -193 92 -336 q111 -144 302 -174 q193 -19 337 92 q143 113 173 303 l-858 78 ZM629 717 q8 0 16 3 q7 2 12 8 q6 7 9 14 q3 8 3 15 q-3 14 -12 23 q-9 10 -21 13 q-14 3 -26 -3 q-12 -4 -20 -16 q-5 -9 -5 -19 q0 -10 5 -19 q7 -10 17 -15 q11 -4 22 -4 ZM154 717 l233 0 l0 78 l-233 0 l0 -78 ZM881 888 q28 0 49 -18 q20 -18 24 -48 l0 -198 l-931 0 l0 198 q2 30 21 48 q21 18 49 18 l788 0 ZM154 376 l233 0 l0 77 l-233 0 l0 -77 ZM625 376 q-17 0 -28 -11 q-11 -11 -12 -28 q0 -12 8 -21 q6 -10 18 -14 q12 -3 24 -1 q11 2 21 10 q8 8 10 20 q3 11 -2 22 q-6 11 -16 17 q-10 6 -23 6 ZM758 376 q-17 -1 -28 -11 q-11 -12 -11 -29 q2 -17 13 -27 q13 -10 30 -10 q16 1 27 12 q11 12 12 28 q-3 17 -14 27 q-13 10 -29 10 ZM18 546 l931 0 l0 -263 l-927 0 l-4 263 Z" /><glyph glyph-name="news" unicode="&#xe9a5;" d="M929 888 q41 -1 67 -28 q27 -26 28 -66 l0 -788 q-1 -53 -37 -90 q-36 -35 -89 -36 l-756 0 q-53 1 -90 36 q-35 37 -36 90 l0 630 q1 40 27 67 q27 27 67 28 l32 0 l0 63 q1 40 27 66 q27 27 67 28 l693 0 ZM961 6 l0 788 q0 13 -9 22 q-9 9 -23 9 l-693 0 q-14 0 -22 -9 q-9 -9 -9 -22 l0 -756 q0 -14 -9 -23 q-9 -9 -23 -9 q-14 0 -22 9 q-9 9 -9 23 l0 630 l-32 0 q-14 0 -22 -9 q-9 -9 -9 -23 l0 -630 q1 -27 18 -44 q18 -18 45 -19 l756 0 q26 1 44 19 q18 17 19 44 ZM630 479 q-7 0 -11 4 q-5 4 -5 11 q0 7 5 11 q4 5 11 5 l252 0 q7 0 11 -5 q5 -4 5 -11 q0 -7 -5 -11 q-4 -4 -11 -4 l-252 0 ZM630 573 q-7 0 -11 5 q-5 4 -5 11 q0 7 5 11 q4 5 11 5 l252 0 q7 0 11 -5 q5 -4 5 -11 q0 -7 -5 -11 q-4 -5 -11 -5 l-252 0 ZM630 668 q-7 0 -11 4 q-5 4 -5 11 q0 7 5 11 q4 5 11 5 l252 0 q7 0 11 -5 q5 -4 5 -11 q0 -7 -5 -11 q-4 -4 -11 -4 l-252 0 ZM536 38 q6 0 10 -5 q5 -4 5 -11 q0 -7 -5 -11 q-4 -5 -10 -5 l-252 0 q-7 0 -11 5 q-5 4 -5 11 q0 7 5 11 q4 5 11 5 l252 0 ZM536 132 q6 0 10 -5 q5 -4 5 -11 q0 -7 -5 -11 q-4 -4 -10 -4 l-252 0 q-7 0 -11 4 q-5 4 -5 11 q0 7 5 11 q4 5 11 5 l252 0 ZM536 227 q6 0 10 -5 q5 -4 5 -11 q0 -7 -5 -11 q-4 -5 -10 -5 l-252 0 q-7 0 -11 5 q-5 4 -5 11 q0 7 5 11 q4 5 11 5 l252 0 ZM882 38 q7 0 11 -5 q5 -4 5 -11 q0 -7 -5 -11 q-4 -5 -11 -5 l-252 0 q-7 0 -11 5 q-5 4 -5 11 q0 7 5 11 q4 5 11 5 l252 0 ZM882 132 q7 0 11 -5 q5 -4 5 -11 q0 -7 -5 -11 q-4 -4 -11 -4 l-252 0 q-7 0 -11 4 q-5 4 -5 11 q0 7 5 11 q4 5 11 5 l252 0 ZM882 227 q7 0 11 -5 q5 -4 5 -11 q0 -7 -5 -11 q-4 -5 -11 -5 l-252 0 q-7 0 -11 5 q-5 4 -5 11 q0 7 5 11 q4 5 11 5 l252 0 ZM882 416 q7 0 11 -5 q5 -4 5 -11 q0 -7 -5 -11 q-4 -5 -11 -5 l-598 0 q-7 0 -11 5 q-5 4 -5 11 q0 7 5 11 q4 5 11 5 l598 0 ZM882 321 q7 0 11 -5 q5 -4 5 -11 q0 -7 -5 -11 q-4 -4 -11 -4 l-598 0 q-7 0 -11 4 q-5 4 -5 11 q0 7 5 11 q4 5 11 5 l598 0 ZM299 479 q-14 0 -22 8 q-9 9 -9 23 l0 221 q0 12 9 21 q8 10 22 10 l221 0 q14 0 22 -10 q9 -9 9 -21 l0 -221 q0 -14 -9 -23 q-8 -8 -22 -8 l-221 0 ZM331 699 l0 -157 l157 0 l0 157 l-157 0 Z" /><glyph glyph-name="suanfa" unicode="&#xe9a6;" d="M501 841 q-33 0 -68 -29 q-19 -16 -35 -39 q-18 -24 -33 -54 q-32 -64 -50 -149 q-19 -89 -19 -186 q0 -97 19 -187 q18 -84 50 -149 q15 -29 33 -53 q17 -23 35 -39 q35 -29 68 -29 q35 0 68 29 q19 16 35 39 q18 24 33 53 q32 65 50 150 q19 89 19 186 q0 97 -19 186 q-18 85 -50 149 q-15 30 -33 54 q-16 23 -35 39 q-33 29 -68 29 ZM501 888 q107 -6 178 -148 q71 -142 74 -356 q-3 -215 -74 -356 q-71 -143 -178 -148 q-107 5 -178 148 q-71 141 -74 356 q3 214 74 356 q71 142 178 148 ZM501 841 q-33 0 -68 -29 q-19 -16 -35 -39 q-18 -24 -33 -54 q-32 -64 -50 -149 q-19 -89 -19 -186 q0 -97 19 -187 q18 -84 50 -149 q15 -29 33 -53 q17 -23 35 -39 q35 -29 68 -29 q35 0 68 29 q19 16 35 39 q18 24 33 53 q32 65 50 150 q19 89 19 186 q0 97 -19 186 q-18 85 -50 149 q-15 30 -33 54 q-16 23 -35 39 q-33 29 -68 29 ZM501 888 q107 -6 178 -148 q71 -142 74 -356 q-3 -215 -74 -356 q-71 -143 -178 -148 q-107 5 -178 148 q-71 141 -74 356 q3 214 74 356 q71 142 178 148 ZM254 669 q-58 0 -97 -15 q-36 -15 -52 -42 q-16 -29 -9 -72 q4 -25 16 -51.5 q12 -26.5 31 -54.5 q40 -60 104 -118 q67 -61 152 -109 q90 -52 181 -81 q90 -27 169 -28 q58 0 98 16 q34 15 50 42 q17 29 9 72 q-4 24 -16 51 q-12 27 -31 55 q-39 60 -103 118 q-68 60 -153 109 q-90 52 -181 81 q-90 27 -168 27 ZM254 718 q81 -1 177 -30 q97 -28 196 -85 q184 -111 272 -243 q87 -133 38 -228 q-23 -41 -73 -61 q-49 -21 -115 -21 q-82 0 -178 30 q-96 28 -196 85 q-184 110 -272 243 q-87 133 -38 228 q24 40 73 61 q49 21 116 21 ZM749 669 q-79 0 -169 -27 q-91 -29 -181 -81 q-85 -49 -152 -109 q-65 -58 -104 -118 q-19 -28 -31 -55 q-12 -27 -16 -51 q-7 -43 9 -72 q16 -27 52 -42 q39 -16 97 -16 q78 1 168 28 q91 29 181 81 q85 48 153 109 q64 58 103 118 q19 28 31 54 q12 28 16 52 q8 43 -9 72 q-16 27 -50 42 q-40 15 -98 15 ZM749 717 q67 1 115 -20 q50 -21 73 -61 q49 -95 -38.5 -228 q-87.5 -133 -271.5 -243 q-99 -57 -196 -85 q-96 -30 -177 -30 q-67 0 -116 21 q-49 20 -73 61 q-49 95 38.5 227.5 q87.5 132.5 271.5 243.5 q100 57 196 85.5 q96 28.5 178 28.5 ZM470 360 q9 0 16 7 q7 6 7 17 q0 10 -7 17 q-7 6 -16 7 l-126 0 q-10 -1 -17 -7 q-7 -7 -7 -17 q0 -11 7 -17 q7 -7 17 -7 l126 0 ZM407 297 q9 0 16 7 q7 6 7 17 l0 126 q0 10 -7 17 q-7 6 -16 7 q-10 -1 -17 -7 q-7 -7 -7 -17 l0 -126 q0 -10 7 -17 q7 -7 17 -7 ZM659 360 q9 0 16 7 q7 6 7 17 q0 10 -7 17 q-7 6 -16 7 l-95 0 q-10 -1 -17 -7 q-7 -7 -7 -17 q0 -11 7 -17 q7 -7 17 -7 l95 0 Z" /><glyph glyph-name="ziyuan" unicode="&#xe9a7;" d="M1165 647 q-3 -3 -4 -5 q-1 0 -3 -1 q-1 -2 -5 -4 q-1 0 -1 -1 l-155 -82 l135 -66 l2 -1 q1 0 2 -2 q1 -1 3 -1 l2 -2 q1 -2 1 -3 l1 -1 l2 -1 q0 -2 1 -3 q0 -1 1 -2 l0 -3 q1 -1 1 -2 l0 -3 l0 -4 l0 -2 l0 -3 q-1 -1 -1 -2 q0 -1 -1 -4 q0 -1 -1 -1 l-3 -5 l-1 -1 l-5 -5 l-176 -117 q1 -2 1 -6 l0 -175 q0 -2 -1 -4 l0 -3 q-2 -1 -2 -2 q0 -3 -1 -4 q-1 -1 -1 -2 q-1 0 -3 -2 q0 -1 -1 -2 l-2 -3 q-2 -1 -3 -1 l-337 -230 q0 -1 -1 -1 q-1 -1 -2 -1 q-2 -2 -3 -2 q-1 -1 -4 -1 q-2 -1 -6 -1 q-4 0 -7 1 q-2 0 -2 1 q-2 0 -3 2 q-2 0 -4 1 l-337 231 q-1 0 -1 1 q-3 2 -4 3 l-1 1 l-3 3 q0 1 -1 2 q0 1 -1 3 q0 1 -1 3 l0 3 q0 1 -2 5 l0 174 q0 4 2 6 l-176 117 q-3 2 -6 6 q-2 3 -3 5 l-2 1 q0 1 -1 4 l0 2 q-1 2 -1 3 l0 2 l0 4 l0 3 q1 1 1 2 l0 3 q1 1 1 2 q2 1 3 4 l1 1 q1 1 1 3 l3 2 q1 0 2 1 q1 2 3 2 l1 1 l137 66 l-157 82 l-2 1 l-4 4 l-1 1 q-3 2 -4 5 l-1 1 q-2 1 -2 4 l-1 1 l0 4 q-1 1 -1 2 l0 3 l0 2 q0 2 1 3 l0 3 q0 2 1 2 q0 2 2 3 q0 2 1 3 q1 1 1 2 l3 3 l2 1 l3 3 q1 0 1 1 l349 196 l3 0 l5 3 l4 0 q3 1 7 0 q2 0 3 -1 l3 0 q1 -2 4 -2 l181 -102 l182 101 l1 1 q1 0 4 2 l1 1 l5 0 q2 1 6 1 q2 -1 5 -1 q2 -1 4 -1 l2 -3 l349 -195 l2 -1 q1 -2 3 -3 l2 -1 l2 -3 q1 -1 1 -2 q2 -1 2 -3 q1 -1 2 -5 q0 -2 1 -3 l0 -3 l0 -5 q0 -1 -1 -3 l0 -3 l-1 -1 q0 -3 -1 -5 ZM790 278 l270 180 l-128 61 l-281 -151 l139 -90 ZM399 278 l138 90 l-281 151 l-128 -61 l271 -180 ZM398 825 l-287 -162 l145 -77 l278 162 l-136 77 ZM594 405 l277 149 l-277 160 l-277 -160 l277 -149 ZM654 748 l278 -162 l146 77 l-288 162 l-136 -77 ZM382 218 l-95 63 l0 -125 l279 -190 l0 350 l-152 -98 q-3 -1 -6 -2 l-2 -2 q-3 -1 -8 -1 q-4 0 -8 1 q-1 2 -2 2 q-3 1 -6 2 ZM902 156 l0 125 l-97 -63 l-5 -2 q-1 -2 -2 -2 q-4 -1 -8 -1 q-3 0 -7 1 q-1 2 -2 2 q-3 1 -7 2 l-150 98 l0 -350 l278 190 Z" /><glyph glyph-name="shouye" unicode="&#xe9a8;" d="M1142 425 q14 -12 15 -26 q1 -14 -10 -28 q-7 -8 -17 -12 q-10 -3 -20 -2 l-131 0 l0 -438 q0 -17 -11 -28 q-11 -11 -28 -11 l-211 0 q-17 0 -28 11 q-11 11 -11 28 l0 197 l-184 0 l0 -197 q0 -17 -11 -28 q-12 -11 -28 -11 l-210 0 q-17 0 -28 11 q-11 11 -12 28 l0 437 l-158 0 q-12 0 -22 7 q-10 7 -15 18 q-4 12 -1 24 q3 12 12 20 l529 453 q13 10 26.5 10 q13.5 0 24.5 -10 l529 -453 ZM900 -41 l-1 398 l0 19 l0 36 q1 15 10 20 q9 6 17 6 l81 0 l-419 359 l-422 -362 l91 0 q16 -2 28 -13 q11 -11 11 -27 l0 -436 l131 0 l0 197 q1 16 12 27 q11 12 28 12 l262 0 q18 0 29 -12 q11 -11 11 -27 l0 -197 l131 0 Z" /><glyph glyph-name="yinyue" unicode="&#xe9a9;" d="M522 -120 q102 0 193 38 q91 39 163 110 q148 155 148 356.5 q0 201.5 -148 355.5 q-72 72 -163 111 q-91 37 -193 37 q-101 0 -193 -37 q-91 -39 -163 -111 q-148 -154 -148 -356 q0 -201 148 -356 q72 -71 163 -110 q92 -38 193 -38 ZM522 798 q83 0 158 -32 q75 -30 134 -89 q122 -127 122 -293 q0 -165 -122 -292 q-59 -59 -134 -90 q-75 -31 -158 -32 q-83 1 -159 32 q-74 31 -134 90 q-121 127 -121 292 q0 166 121 293 q60 59 135 90 q75 31 158 31 ZM522 211 q35 0 65 14 q32 12 57 37 q25 25 37 57 q14 30 14 65 q0 35 -14 67 q-12 31 -37 55 q-25 25 -57 38 q-30 13 -65 13 q-35 0 -66 -13 q-31 -13 -56 -38 q-50 -53 -50 -122 q0 -69 50 -122 q25 -25 56 -37 q31 -14 66 -14 ZM522 466 q17 0 31.5 -6 q14.5 -6 26.5 -17 q24 -26 24 -59 q0 -33 -24 -58 q-12 -12 -26.5 -17.5 q-14.5 -5.5 -31.5 -5.5 q-17 0 -32 5 q-14 6 -27 18 q-23 25 -23 58 q0 33 23 59 q13 11 27 18 q15 5 32 5 ZM655 545 q7 0 14 4 q5 2 10 8 l87 111 q7 10 5 23 q-1 11 -11 20 q-10 7 -21 6 q-13 -2 -21 -12 l-87 -111 q-7 -10 -5 -23 q1 -11 11 -19 q8 -7 18 -7 ZM713 488 q10 0 19 5 l110 87 q10 8 13 20 q1 13 -7 23 q-8 10 -20 11 q-12 1 -22 -6 l-111 -86 q-11 -9 -12 -20 q-2 -13 6 -23 q4 -6 11 -9 q6 -2 13 -2 ZM302 51 q7 0 13 3.5 q6 3.5 11 9.5 l87 111 q6 11 5 22 q-1 12 -11 20 q-10 8 -23 6 q-11 -1 -20 -12 l-86 -110 q-7 -11 -6 -23 q2 -12 11 -20 q9 -7 19 -7 ZM220 134 q10 0 18 6 l112 87 q10 8 11 21 q1 11 -6 21 q-9 10 -20 12 q-13 2 -23 -6 l-111 -87 q-9 -8 -11 -20 q-2 -12 6 -22 q5 -6 10 -9 q7 -3 14 -3 Z" /><glyph glyph-name="right" unicode="&#xf002;" d="M665 412 q7 -7 10 -13 q2 -6 0 -9 q0 -7 -3 -15 q-2 -8 -7 -13 l-242 -242 q-10 -10 -22 -10 q-13 0 -22 10 q-9 10 -9 22 q0 12 9 22 l223 224 l-223 222 q-9 10 -9 22 q0 13 9 22 q9 10 22 10 q12 0 22 -10 l242 -242 ZM524 888 q212 -6 355 -149 q143 -142 149 -355 q-6 -213 -149 -355 q-143 -143 -355 -149 q-213 6 -356 149 q-142 142 -148 355 q6 213 148.5 355.5 q142.5 142.5 355.5 148.5 ZM524 -56 q187 5 311 129 q124 124 129 311 q-5 187 -129 311 q-124 124 -311 129 q-187 -5 -311 -129 q-124 -124 -129 -311 q5 -187 129 -311 q124 -124 311 -129 Z" /><glyph glyph-name="left" unicode="&#xf001;" d="M666 652 q10 -10 10 -22 q0 -13 -10 -23 l-224 -222 l224 -231 q10 -9 10 -22 q0 -12 -10 -22 q-10 -10 -22 -10 q-13 0 -22 10 l-243 243 q-13 14 -9 28 q0 7 2 16 q2 7 7 12 l243 243 q9 10 22 10 q12 0 22 -10 ZM524 888 q213 -5 356 -148 q143 -142 149 -355 q-6 -215 -149 -357 q-143 -143 -356 -148 q-213 5 -355.5 147.5 q-142.5 142.5 -148.5 357.5 q6 213 149 355 q142 143 355 148 ZM524 -57 q187 5 312 129 q124 126 129 313 q-5 185 -129 311 q-125 124 -312 129 q-187 -5 -311 -130 q-124 -125 -129 -310 q5 -187 129 -313 q124 -124 311 -129 Z" /></font>
</defs>
</svg>
